<svg viewBox="0 0 512 512" xmlns="http://www.w3.org/2000/svg"><rect fill="#fff" height="512" rx="15%" width="512"/><path d="m315.9 261.2c0-33.6-27-60.7-60.7-60.7a60.6 60.6 0 0 0 -21.4 117.5l-23.7 124.7h90.2l-23-124.7a61 61 0 0 0 38.6-56.7" fill="#036"/><path d="m448 260.4c0-105-86.2-190.4-192-190.4s-192 85.3-192 190.4c0 69.7 37.7 130.4 94.4 163.2l12.3-81.2a112.7 112.7 0 0 1 -29.7-75.4c0-62.3 51-113.2 114-113.2 63.3 0 114.1 50.9 114.1 113.2 0 29.6-11.5 55.8-29.5 76.3l12.3 81.3c57.4-32.9 96-94.4 96-164.1" fill="#ea7e20"/></svg>